<svg width="64" height="64" viewBox="0 0 64 64" fill="none" xmlns="http://www.w3.org/2000/svg" class="" style="width: 24px; height: auto;"><path d="M48.675 49.9091H35.2456V50.794H48.675V49.9091Z" fill="#fff"></path><path d="M28.725 49.9091H15.2957V50.794H28.725V49.9091Z" fill="#fff"></path><path d="M11.7404 46.4003C10.7234 46.4551 9.76674 46.9005 9.07018 47.6436C8.37362 48.3867 7.99092 49.3701 8.00194 50.3885C8.01296 51.407 8.41684 52.3818 9.12931 53.1097C9.84178 53.8376 10.8078 54.2622 11.8258 54.2949H11.95C12.4647 54.2837 12.9721 54.1701 13.4426 53.9609C13.913 53.7517 14.3371 53.4509 14.6902 53.0762C15.394 52.3144 15.7776 51.3109 15.7614 50.2739C15.7544 49.7547 15.6445 49.2421 15.4381 48.7657C15.2317 48.2893 14.9329 47.8585 14.559 47.4983C14.1851 47.1381 13.7434 46.8556 13.2596 46.6671C12.7758 46.4786 12.2595 46.388 11.7404 46.4003Z" fill="#fff"></path><path d="M31.9232 54.2949C31.6893 54.2896 31.4559 54.2689 31.2246 54.2328C30.7167 54.1452 30.2314 53.9573 29.7969 53.6801C29.3624 53.4028 28.9875 53.0419 28.694 52.6182C28.3926 52.1941 28.1796 51.7137 28.0676 51.2056C27.9556 50.6976 27.9468 50.1722 28.0419 49.6606C28.1272 49.153 28.3141 48.6679 28.5916 48.2343C28.8691 47.8008 29.2313 47.4278 29.6566 47.1378C30.0763 46.8309 30.5555 46.6151 31.0634 46.5042C31.5714 46.3932 32.0969 46.3896 32.6064 46.4935C33.1142 46.5811 33.5996 46.769 34.0341 47.0462C34.4686 47.3235 34.8435 47.6844 35.137 48.1081C35.441 48.5311 35.6568 49.0109 35.7715 49.519C35.8862 50.0271 35.8974 50.5531 35.8046 51.0657C35.6252 52.097 35.0446 53.0152 34.1899 53.6196C33.516 54.06 32.7284 54.2947 31.9232 54.2949ZM31.9232 47.3086C31.2917 47.3131 30.6758 47.5049 30.1534 47.8597C29.8222 48.0882 29.5408 48.3814 29.326 48.7216C29.1112 49.0618 28.9675 49.442 28.9036 49.8392C28.8295 50.2349 28.8374 50.6417 28.9269 51.0342C29.0164 51.4268 29.1854 51.7968 29.4237 52.1214C29.6522 52.4525 29.9454 52.7339 30.2856 52.9487C30.6258 53.1635 31.0059 53.3072 31.4032 53.3712C31.806 53.4544 32.222 53.4511 32.6234 53.3614C33.0249 53.2718 33.4028 53.0978 33.7319 52.8511C34.3774 52.3691 34.8103 51.6551 34.9392 50.86C35.0682 50.0648 34.883 49.2506 34.4228 48.5894C34.1973 48.2554 33.905 47.9719 33.5642 47.7567C33.2235 47.5416 32.8418 47.3996 32.4433 47.3396C32.2721 47.3053 32.0979 47.2871 31.9232 47.2853V47.3086Z" fill="#fff"></path><path d="M52.0595 54.2949C51.8229 54.2896 51.5869 54.2689 51.3531 54.2328C50.323 54.0502 49.4059 53.4704 48.7992 52.6182C48.4992 52.1935 48.2875 51.7129 48.1768 51.2048C48.0662 50.6968 48.0587 50.1716 48.1549 49.6606C48.2444 49.1535 48.434 48.6693 48.7125 48.2362C48.9911 47.803 49.353 47.4297 49.7773 47.1378C50.1993 46.8324 50.6798 46.6176 51.1888 46.5067C51.6977 46.3958 52.2241 46.3913 52.7348 46.4935C53.7649 46.6761 54.682 47.2559 55.2887 48.1081C55.5888 48.5328 55.8004 49.0134 55.9111 49.5215C56.0218 50.0296 56.0292 50.5547 55.933 51.0657C55.7504 52.0957 55.1706 53.0129 54.3184 53.6196C53.6448 54.0546 52.8613 54.2888 52.0595 54.2949ZM52.0595 47.3086C51.428 47.3131 50.812 47.5049 50.2896 47.8597C49.9538 48.0819 49.6666 48.3697 49.4451 48.7059C49.2236 49.0421 49.0726 49.4197 49.001 49.8159C48.9269 50.2116 48.9349 50.6184 49.0243 51.0109C49.1138 51.4035 49.2829 51.7735 49.5211 52.0981C49.7496 52.4292 50.0428 52.7107 50.383 52.9254C50.7232 53.1402 51.1034 53.2839 51.5006 53.3479C51.8963 53.4239 52.3034 53.4169 52.6963 53.3273C53.0891 53.2378 53.4591 53.0677 53.7828 52.8278C54.1121 52.5973 54.3922 52.3036 54.6068 51.9637C54.8213 51.6239 54.9661 51.2447 55.0326 50.8483C55.1063 50.4568 55.0989 50.0543 55.0108 49.6657C54.9226 49.2771 54.7557 48.9108 54.5202 48.5894C54.2924 48.2577 53.9994 47.9758 53.6591 47.7609C53.3187 47.546 52.9383 47.4027 52.5408 47.3396C52.3721 47.305 52.2006 47.2868 52.0284 47.2853L52.0595 47.3086Z" fill="#fff"></path><path d="M46.3306 31.5116C46.2375 32.0239 46.1443 32.5751 46.0279 33.1262L45.7795 34.4614C44.7471 40.1281 42.0069 41.2227 37.0077 41.2848C34.5082 41.2848 30.9141 41.2848 28.0574 41.2848H25.7131C17.2518 41.2848 12.1052 35.6801 9.48145 23.6481C9.29703 23.0057 9.28159 22.3266 9.43663 21.6766C9.59166 21.0265 9.91192 20.4275 10.3664 19.9375C13.7121 16.2813 24.8903 16.0562 35.3077 17.1042V15.7302C27.0793 14.8763 13.681 14.364 9.41159 19.0215C8.8113 19.6706 8.38258 20.4593 8.16433 21.316C7.94608 22.1727 7.94521 23.0704 8.1618 23.9275C10.9098 36.503 16.7007 42.6277 25.7364 42.6277H30.9451C33.1109 42.6277 35.331 42.6277 37.0388 42.6277C42.5192 42.5345 45.9347 41.2227 47.1302 34.7098L47.3708 33.3669C47.495 32.7303 47.6192 32.1171 47.7046 31.5116H46.3306Z" fill="#fff"></path><path d="M54.5823 31.5116H35.952C35.7462 31.5116 35.5487 31.4298 35.4031 31.2843C35.2576 31.1387 35.1758 30.9412 35.1758 30.7354V9.77626C35.1758 9.57039 35.2576 9.37294 35.4031 9.22736C35.5487 9.08178 35.7462 9 35.952 9H54.5823C54.7882 9 54.9857 9.08178 55.1313 9.22736C55.2768 9.37294 55.3586 9.57039 55.3586 9.77626V30.7354C55.3458 30.937 55.2599 31.1271 55.117 31.27C54.9741 31.4129 54.784 31.4988 54.5823 31.5116ZM36.7283 29.9591H53.8061V10.5525H36.7283V29.9591Z" fill="#fff"></path><path d="M47.3941 18.8663H43.9863L43.4972 20.1782H41.6963L44.6539 12.563H46.6721L49.6297 20.1782H47.8831L47.3941 18.8663ZM44.4443 17.469H46.9671L45.7173 13.9681L44.4443 17.469Z" fill="#fff"></path><path d="M44.1338 26.3029H41.8516L41.5178 27.1801H40.3301L42.3095 22.0956H43.6835L45.632 27.1801H44.4443L44.1338 26.3029ZM42.1232 25.3559H43.8L42.9461 23.0271L42.1232 25.3559Z" fill="#fff"></path><path d="M46.4781 22.0956H49.164C49.3482 22.0747 49.5348 22.0931 49.7114 22.1497C49.888 22.2062 50.0506 22.2995 50.1885 22.4235C50.3264 22.5474 50.4365 22.6992 50.5114 22.8688C50.5864 23.0384 50.6245 23.222 50.6234 23.4074C50.6402 23.6688 50.5647 23.9278 50.41 24.1392C50.2554 24.3506 50.0314 24.5009 49.7772 24.5641C50.0612 24.6241 50.3149 24.7824 50.4938 25.0109C50.6727 25.2395 50.7653 25.5238 50.7553 25.8139C50.7598 26.0053 50.7233 26.1955 50.6483 26.3716C50.5732 26.5478 50.4614 26.7059 50.3202 26.8353C50.1791 26.9646 50.0119 27.0624 49.8299 27.1218C49.6478 27.1813 49.4552 27.2012 49.2649 27.1801H46.4548L46.4781 22.0956ZM48.9156 24.1371C48.9911 24.1438 49.0671 24.1343 49.1386 24.1094C49.2102 24.0844 49.2757 24.0446 49.3307 23.9925C49.3857 23.9404 49.4291 23.8773 49.4579 23.8072C49.4867 23.7371 49.5003 23.6617 49.4978 23.586C49.4969 23.5116 49.4809 23.4381 49.4508 23.3701C49.4207 23.302 49.3771 23.2407 49.3227 23.1899C49.2683 23.1392 49.2042 23.0999 49.1342 23.0746C49.0643 23.0493 48.9899 23.0384 48.9156 23.0426H47.5494V24.1682H48.9156V24.1371ZM48.9156 26.2408C49 26.2514 49.0858 26.2431 49.1667 26.2165C49.2475 26.1899 49.3215 26.1456 49.3831 26.0869C49.4448 26.0282 49.4926 25.9566 49.5232 25.8771C49.5538 25.7977 49.5663 25.7124 49.5599 25.6275C49.5579 25.5453 49.5396 25.4643 49.506 25.3892C49.4724 25.3141 49.4243 25.2464 49.3643 25.1901C49.3044 25.1338 49.2339 25.0899 49.1568 25.0611C49.0798 25.0322 48.9978 25.019 48.9156 25.0221H47.5183V26.2097H48.9156V26.2408Z" fill="#fff"></path><path d="M14.2865 29.1828C14.1531 29.1862 14.0222 29.1464 13.9131 29.0695C13.804 28.9926 13.7227 28.8827 13.681 28.7559C13.2929 27.6691 12.8271 26.5435 12.4312 25.3015C12.2334 24.7783 12.1524 24.2181 12.194 23.6602C12.2355 23.1024 12.3986 22.5604 12.6719 22.0723C13.5257 20.6129 15.5673 19.5184 18.6724 18.8741C18.8463 18.838 19.0275 18.8726 19.176 18.9701C19.3245 19.0677 19.4281 19.2202 19.4642 19.3942C19.5002 19.5681 19.4656 19.7493 19.3681 19.8978C19.2706 20.0463 19.118 20.1499 18.9441 20.1859C16.266 20.7371 14.5038 21.6143 13.8285 22.7476C13.6482 23.0698 13.5441 23.429 13.5239 23.7976C13.5037 24.1662 13.5681 24.5346 13.712 24.8746C14.1079 26.0933 14.4883 27.2034 14.9308 28.228C14.9955 28.3951 14.9929 28.5807 14.9233 28.7458C14.8538 28.9109 14.7229 29.0425 14.5582 29.113C14.4723 29.1518 14.3804 29.1754 14.2865 29.1828Z" fill="#fff"></path></svg>